<svg id="Hexels SVG Export" xmlns="http://www.w3.org/2000/svg" version="1.1" xmlns:xlink="http://www.w3.org/1999/xlink" viewBox="0 -0 2078 2400" xml:space="preserve">
<g id="Root" transform="matrix(1.000, 0.000, 0.000, 1.000, 0.000, 0.000)">
<g id="Layer 1" transform="matrix(1.000, 0.000, 0.000, 1.000, 0.000, 0.000)">
<path d="M 1122.07,1079.93 L 1122.07,1176.07 L 1143.44,1164.07 L 1143.44,1091.93 L 1122.07,1079.93  z
" style="fill:#550ad3;fill-opacity:1.00"/>
<path d="M 1142.86,1091.90 L 1142.89,1163.85 L 1080.74,1199.71 L 1081.05,1175.85 L 1059.71,1163.95 L 1059.71,1308.04 L 1081.09,1320.07 L 1081.03,1224.19 L 1226.46,1140.24 L 1226.23,1115.71 L 1163.99,1151.71 L 1164.22,1103.90 L 1142.86,1091.90  z
" style="fill:#a1dbf8;fill-opacity:1.00"/>
<path d="M 955.79,1103.96 L 955.79,1272.04 L 977.17,1260.04 L 977.17,1115.96 L 955.79,1103.96  z
" style="fill:#0b21ea;fill-opacity:1.00"/>
<path d="M 976.58,1115.95 L 976.59,1259.90 L 914.67,1295.74 L 914.81,1223.93 L 893.44,1211.94 L 893.66,1332.29 L 1039.40,1248.24 L 1039.23,1223.70 L 997.93,1247.88 L 997.95,1127.95 L 976.58,1115.95  z
" style="fill:#f59b60;fill-opacity:1.00"/>
<path d="M 1038.93,1151.95 L 1038.93,1296.04 L 1060.31,1308.05 L 1060.31,1163.96 L 1038.93,1151.95  z
" style="fill:#550ad3;fill-opacity:1.00"/>
<path d="M 872.65,1199.95 L 872.65,1344.05 L 894.03,1332.05 L 894.03,1211.95 L 872.65,1199.95  z
" style="fill:#0b21ea;fill-opacity:1.00"/>
</g>
</g></svg>
